<svg width="158" height="158" viewBox="0 0 158 158" xmlns="http://www.w3.org/2000/svg" xmlns:xlink="http://www.w3.org/1999/xlink"><defs><path d="M99.5.4H28.4C13 .4.4 13 .4 28.4v71.1c0 15.4 12.6 28 28 28h71.1c15.4 0 28-12.6 28-28V28.4c0-15.4-12.6-28-28-28z" id="b"/><filter x="-20.5%" y="-17.3%" width="140.9%" height="140.9%" filterUnits="objectBoundingBox" id="a"><feOffset dy="4" in="SourceAlpha" result="shadowOffsetOuter1"/><feGaussianBlur stdDeviation="8" in="shadowOffsetOuter1" result="shadowBlurOuter1"/><feColorMatrix values="0 0 0 0 0 0 0 0 0 0 0 0 0 0 0 0 0 0 0.146824049 0" in="shadowBlurOuter1"/></filter></defs><g fill="none" fill-rule="evenodd"><g transform="translate(15 11)"><use fill="#000" filter="url(#a)" xlink:href="#b"/><use fill="#FFF" xlink:href="#b"/></g><path d="M51.7 107.1c0 1.8-1.4 3.2-3.2 3.2-1.8 0-3.2-1.4-3.2-3.2V83.5c0-1.8 1.4-3.2 3.2-3.2 1.8 0 3.2 1.4 3.2 3.2v23.6zm0-40c0 1.8-1.4 3.2-3.2 3.2-1.8 0-3.2-1.4-3.2-3.2V43.5c0-1.8 1.4-3.2 3.2-3.2 1.8 0 3.2 1.5 3.2 3.2v23.6zm11.9 40c0 1.8-1.4 3.2-3.2 3.2-1.8 0-3.2-1.4-3.2-3.2V83.5c0-1.8 1.4-3.2 3.2-3.2 1.8 0 3.2 1.4 3.2 3.2v23.6zm11.8 0c0 1.8-1.4 3.2-3.2 3.2-1.8 0-3.2-1.4-3.2-3.2V83.5c0-1.8 1.4-3.2 3.2-3.2 1.8 0 3.2 1.4 3.2 3.2v23.6zm0-40c0 1.8-1.4 3.2-3.2 3.2-1.8 0-3.2-1.4-3.2-3.2V43.5c0-1.8 1.4-3.2 3.2-3.2 1.8 0 3.2 1.5 3.2 3.2v23.6zm23.6-27c8.2 0 14.8 6.6 14.8 14.8 0 8.2-6.6 14.8-14.8 14.8-8.2 0-14.8-6.6-14.8-14.8 0-8.2 6.6-14.8 14.8-14.8zm12.3 70.2H87.7c-1.8 0-3.2-1.4-3.2-3.2 0-1.8 1.4-3.2 3.2-3.2h23.6c1.8 0 3.2 1.4 3.2 3.2 0 1.8-1.5 3.2-3.2 3.2zm0-11.8H87.7c-1.8 0-3.2-1.4-3.2-3.2 0-1.8 1.4-3.2 3.2-3.2h23.6c1.8 0 3.2 1.4 3.2 3.2 0 1.8-1.5 3.2-3.2 3.2zm0-12.7H87.7c-1.8 0-3.2-1.4-3.2-3.2 0-1.8 1.4-3.2 3.2-3.2h23.6c1.8 0 3.2 1.4 3.2 3.2 0 1.8-1.5 3.2-3.2 3.2z" fill="#2D3746"/><path d="M90.2 54.9c0-4.9 4-8.8 8.8-8.8 4.9 0 8.8 4 8.8 8.8 0 4.9-4 8.8-8.8 8.8-4.9 0-8.8-4-8.8-8.8z" fill="#FFF" fill-rule="nonzero"/></g></svg>